<?xml version="1.0" standalone="no"?>
<!DOCTYPE svg PUBLIC "-//W3C//DTD SVG 20010904//EN"
 "http://www.w3.org/TR/2001/REC-SVG-20010904/DTD/svg10.dtd">
<svg version="1.0" xmlns="http://www.w3.org/2000/svg"
 width="852.000000pt" height="852.000000pt" viewBox="0 0 852.000000 852.000000"
 preserveAspectRatio="xMidYMid meet">
<metadata>
Created by potrace 1.14, written by Peter Selinger 2001-2017
</metadata>
<g transform="translate(0.000000,852.000000) scale(0.100000,-0.100000)"
fill="#000000" stroke="none">
<path d="M382 7763 l3 -758 2142 0 2143 0 0 212 c0 117 0 413 0 658 0 245 0
490 0 545 l0 100 -2145 0 -2145 0 2 -757z"/>
<path d="M380 4220 l0 -1770 810 0 c446 0 810 3 811 8 0 4 1 477 2 1051 l2
1044 1975 2 c1545 0 1990 -2 2044 -12 82 -15 170 -46 204 -73 13 -11 29 -20
33 -20 11 0 59 -41 111 -95 47 -49 104 -159 123 -240 14 -59 14 -190 1 -249
-4 -16 -14 -42 -22 -57 -8 -16 -12 -29 -10 -29 7 0 -33 -68 -68 -116 -27 -36
-158 -148 -174 -149 -4 -1 -17 -6 -30 -13 -42 -24 -147 -53 -207 -59 -33 -3
-685 -6 -1450 -7 -765 -2 -1392 -4 -1395 -5 -3 0 -5 -772 -5 -1713 l0 -1713
815 0 815 0 0 989 0 989 760 3 c653 4 840 7 840 14 0 2 29 7 75 13 79 11 232
50 345 88 102 35 319 131 335 149 3 3 25 16 50 29 104 57 250 170 384 299 79
76 182 201 253 307 36 54 126 212 129 225 0 3 14 34 31 70 28 60 57 138 55
150 0 3 3 10 8 15 8 10 46 140 54 187 2 15 7 31 10 36 3 5 8 31 12 58 3 27 8
58 10 69 12 58 18 167 18 310 1 170 -6 248 -31 375 -4 19 -8 42 -9 50 -1 8
-10 42 -19 75 -9 33 -19 71 -22 85 -3 14 -9 30 -13 35 -4 6 -10 23 -14 40 -4
16 -17 50 -28 75 -11 25 -34 77 -51 115 -17 39 -36 77 -41 85 -6 8 -20 31 -30
50 -26 47 -136 213 -151 225 -6 6 -31 34 -55 63 -65 80 -186 197 -270 262 -25
19 -47 37 -50 40 -3 3 -44 31 -91 62 -195 128 -428 231 -649 284 -94 23 -110
26 -200 39 -25 4 -56 9 -70 13 -14 4 -1360 8 -2992 9 l-2968 3 0 -1770z"/>
</g>
</svg>
